<?xml version="1.0" encoding="UTF-8" standalone="no"?>
<svg
   xmlns:dc="http://purl.org/dc/elements/1.1/"
   xmlns:cc="http://creativecommons.org/ns#"
   xmlns:rdf="http://www.w3.org/1999/02/22-rdf-syntax-ns#"
   xmlns:svg="http://www.w3.org/2000/svg"
   xmlns="http://www.w3.org/2000/svg"
   width="100%"
   height="100%"
   viewBox="0 0 64 64"
   version="1.1"
   xml:space="preserve"
   style="fill-rule:evenodd;clip-rule:evenodd;stroke-linecap:round;stroke-linejoin:round;stroke-miterlimit:2;"
   id="svg17">
  <metadata
   id="metadata23">
    <rdf:RDF>
      <cc:Work
   rdf:about="">
        <dc:format>image/svg+xml</dc:format>

        <dc:type
   rdf:resource="http://purl.org/dc/dcmitype/StillImage" />

      </cc:Work>

    </rdf:RDF>

  </metadata>

  <defs
   id="defs21" />

  
  <path
   d="M30.76,36.219c0.39,0.128 0.807,0.197 1.24,0.197c0.433,0 0.85,-0.069 1.24,-0.197l6.02,6.437c-2.05,1.458 -4.556,2.315 -7.26,2.315c-2.704,0 -5.21,-0.857 -7.26,-2.315l2.484,-2.656"
   style="fill:none;stroke:#222a33;stroke-width:1.5px;"
   id="path3" />

  <path
   d="M28.011,32.254l-8.486,1.522c-0.048,-0.444 -0.073,-0.896 -0.073,-1.353c0,-5.072 3.017,-9.446 7.353,-11.423l2.647,8.351"
   style="fill:none;stroke:#222a33;stroke-width:1.5px;"
   id="path5" />

  <path
   d="M35.769,25.5l1.426,-4.5c4.336,1.977 7.353,6.351 7.353,11.423c0,0.457 -0.025,0.909 -0.073,1.353l-8.486,-1.522c-0.049,-1.167 -0.599,-2.204 -1.441,-2.903"
   style="fill:none;stroke:#222a33;stroke-width:1.5px;"
   id="path7" />

  <path
   d="M48.471,36.219c-1.878,7.345 -8.545,12.781 -16.471,12.781c-9.383,0 -17,-7.617 -17,-17c0,-9.383 7.617,-17 17,-17c9.383,0 17,7.617 17,17"
   style="fill:none;stroke:#222a33;stroke-width:1.5px;"
   id="path9" />

  <circle
   cx="12"
   cy="11"
   r="3"
   style="fill:none;stroke:#222a33;stroke-width:1.5px;"
   id="circle11" />

  <circle
   cx="55"
   cy="42.5"
   r="2.5"
   style="fill:none;stroke:#222a33;stroke-width:1.5px;"
   id="circle13" />

  <circle
   cx="13.5"
   cy="51.5"
   r="4.5"
   style="fill:none;stroke:#222a33;stroke-width:1.5px;"
   id="circle15" />

</svg>
